<svg width="512" height="512" viewBox="0 0 512 512" fill="none" xmlns="http://www.w3.org/2000/svg">
  <circle cx="256" cy="256" r="256" fill="white"/>
  <g transform="translate(96, 130) scale(0.42)">
    <path d="M444.073 10.4057L443.475 10.3897C445.43 16.001 448.693 21.9 453.265 28.0869C457.85 33.7687 463.487 39.4787 470.176 45.217C476.358 51.0326 485.223 58.4153 496.772 67.365C498.652 68.8218 500.602 70.3201 502.624 71.8599C517.594 82.8737 525.855 88.9067 527.406 89.959C520.331 93.9935 513.09 98.2687 505.684 102.785C491.824 111.235 477.382 120.529 462.359 130.665C446.736 141.463 515.136 151.464 532.049 160.669C535.599 162.601 536.881 164.498 534.642 166.36L460.875 168.301C458.009 169.279 530.417 171.689 527.612 172.93L479.646 210.263L417.878 258.339C475.604 264.94 520.056 285.587 551.236 320.282C582.955 354.486 592.904 395.686 581.085 443.884L671.821 446.316L762.331 74.2733L676.633 60.6056L608.529 333.188C604.526 305.792 594.642 281.775 578.877 261.138C563.652 240.011 543.308 223.294 517.845 210.988C526.451 204.144 535.845 197.321 546.029 190.519C556.226 183.212 583.526 166.256 627.929 139.652C609.534 118.944 593.527 97.543 579.907 75.4476C566.826 52.8613 558.169 32.1623 553.936 13.3506L444.073 10.4057Z" fill="black"/>
    <path fill-rule="evenodd" clip-rule="evenodd" d="M532.861 344.824C522.099 333.923 509.091 328.268 493.836 327.859C479.108 327.464 465.816 332.414 453.959 342.709C442.629 353.018 436.768 365.494 436.375 380.139C435.982 394.784 441.167 407.557 451.929 418.458C462.691 429.359 475.699 435.014 490.953 435.423C506.207 435.832 519.5 430.882 530.83 420.573C542.16 410.264 548.022 397.787 548.415 383.142C548.807 368.498 543.622 355.725 532.861 344.824Z" fill="black"/>
    <path d="M367.485 451.618C374.348 470.5 383.565 480.097 395.138 480.407C401.976 480.59 408.619 478.241 415.066 473.361C422.026 468.999 426.922 463.066 429.755 455.561C423.12 447.803 418.097 438.825 414.686 428.626C411.288 417.923 409.765 406.006 410.117 392.876C411.363 346.417 424.436 300.527 449.338 255.207C458.856 237.703 468.958 222.722 479.646 210.263C494.504 192.943 510.492 180.499 527.612 172.93L527.549 172.404C529.803 170.432 532.167 168.418 534.642 166.36L532.049 160.669L505.684 102.785L496.772 67.365L495.875 63.8009C462.359 83.3009 430.567 81.6197 404.565 69.8049C379.088 58.0042 359.406 36.2516 345.517 4.54719L175.879 -2.17982e-05C154.851 18.6398 138.509 39.174 126.853 61.6026C115.724 84.0453 109.821 107.892 109.144 133.141C108.264 165.966 118.782 195.811 140.696 222.677C163.136 249.557 187.507 263.35 213.807 264.054C232.217 264.548 247.546 262.179 259.793 256.949C272.58 251.227 285.198 241.964 297.648 229.158C303.136 240.423 304.106 253.336 300.558 267.896C297.023 281.951 289.597 293.881 278.28 303.684C269.121 311.525 257.643 317.534 243.845 321.712C230.586 325.4 215.541 327.018 198.709 326.567C152.946 325.34 117.327 308.972 91.8528 277.462C66.3781 245.953 54.3718 202.928 55.8337 148.389C56.1722 135.764 57.023 123.658 58.3864 112.072C60.2893 99.9942 62.9812 87.9378 66.4621 75.9026C61.351 70.2066 56.4622 66.0327 51.7958 63.3809C47.1294 60.729 41.6402 59.3185 35.3281 59.1493C24.2819 58.8532 15.7711 62.1625 9.79548 69.0773C3.81989 75.9921 0.64935 86.2669 0.283861 99.9018C-2.38285 199.385 13.6798 277.641 48.4717 334.668C83.2636 391.695 134.324 421.111 201.653 422.916C244.26 424.058 278.378 408.043 304.007 374.871C330.162 341.713 343.944 298.875 345.351 246.356C346.015 221.611 342.193 197.251 333.888 173.277C326.108 149.317 314.834 128.042 300.067 109.454C286.821 132.345 269.757 150.333 248.877 163.418C228.524 176.517 208.879 182.813 189.942 182.305C180.474 182.051 173.434 179.589 168.822 174.917C164.21 170.245 162.032 163.111 162.289 153.517C162.831 133.317 175.774 111.934 201.119 89.3666C227.004 66.3087 259.888 47.2286 299.771 32.1263C310.936 67.2951 327.778 96.8046 350.3 120.655C373.348 144.519 398.73 159.855 426.445 166.662C405.268 190.857 388.932 220.993 377.437 257.07C366.482 292.657 360.381 333.68 359.136 380.139C358.351 409.429 361.134 433.255 367.485 451.618Z" fill="black"/>
    <path d="M532.049 160.669C535.599 162.601 536.881 164.498 534.642 166.36L532.049 160.669Z" fill="black"/>
    <path d="M527.612 172.93L479.646 210.263C494.504 192.943 510.492 180.499 527.612 172.93Z" fill="black"/>
    <path d="M527.406 89.959C525.855 88.9067 517.594 82.8737 502.624 71.8599C500.602 70.3201 498.652 68.8218 496.772 67.365L505.684 102.785C513.09 98.2687 520.331 93.9935 527.406 89.959Z" fill="black"/>
  </g>
</svg>
